<svg xmlns="http://www.w3.org/2000/svg" xmlns:svg="http://www.w3.org/2000/svg" id="svg16" width="398" height="406.124" preserveAspectRatio="xMidYMid" version="1.1" viewBox="0 0 398 406.124"><metadata id="metadata20"/><defs id="defs10"><linearGradient id="jupyter" x1="298" x2="696.035" y1="152.938" y2="152.955" gradientTransform="translate(-298,-152.938)" gradientUnits="userSpaceOnUse"><stop style="stop-color:#f78d26" id="stop3660" offset=".052"/><stop style="stop-color:#f68826" id="stop3662" offset=".206"/><stop style="stop-color:#f37a25" id="stop3664" offset=".432"/><stop style="stop-color:#f37625" id="stop3666" offset=".477"/><stop style="stop-color:#e76623" id="stop3668" offset=".616"/><stop style="stop-color:#dc5221" id="stop3670" offset=".836"/><stop style="stop-color:#d84b21" id="stop3672" offset=".987"/></linearGradient></defs><path id="path14" d="m 252,224.062 c 0,0 21.822,6.585 34.5,13 4.399,2.226 12.01,6.668 17.5,12.5 5.378,5.712 8,11.5 8,11.5 l 86,145 -139,0.062 -65,-122.062 c 0,0 -13.31,-22.869 -21.5,-29.5 -6.832,-5.531 -9.745,-7.5 -16.5,-7.5 -4.702,0 -33.026,0 -33.026,0 L 123,406.036 0,406.088 V 0 h 247 c 0,0 112.5,2.029 112.5,109.062 0,107.033 -107.5,115 -107.5,115 z M 198.5,88.086 124.037,88.038 124,157.088 l 74.5,-0.024 c 0,0 34.5,-0.107 34.5,-35.125 0,-35.722 -34.5,-33.853 -34.5,-33.853 z" style="fill:url(#jupyter);fill-rule:evenodd"/><path style="fill:#fff;fill-opacity:1;fill-rule:evenodd;stroke:none;stroke-width:1" id="path0_fill" d="m 41.393839,236.08495 c 0,55.37853 -4.223789,73.45954 -15.487495,86.80675 -12.295484,11.36282 -28.3776502,17.64744 -45.054476,17.60756 l 4.223859,32.94238 c 25.848686,0.3587 50.906274,-8.98778 70.303877,-26.22085 20.180589,-21.01566 27.220397,-50.07756 27.220397,-94.66356 V 43.161436 H 41.3 V 236.36907 l 0.09408,-0.2842 z"/></svg>